<svg width="44" height="70" viewBox="0 0 44 70" fill="none" xmlns="http://www.w3.org/2000/svg">
<g clip-path="url(#clip0_112_2)">
<path fill-rule="evenodd" clip-rule="evenodd" d="M36.8835 44.3353H5.86199C5.79333 43.225 5.82922 42.1572 5.97433 41.1304C7.7078 28.8586 23.9035 28.9093 20.2026 14.4827C18.9777 19.1839 15.8603 20.2941 11.1482 19.7356L8.30227 22.1656C5.25972 24.7639 0.9861 20.1956 3.78993 17.3823C9.64723 11.9501 11.4228 8.54944 13.5479 7.1202C14.3577 6.5767 15.3548 6.60135 15.3064 5.56912C15.2845 5.13103 14.843 4.49992 14.456 4.30689C14.2782 2.8708 14.2267 1.43472 14.456 0C17.1054 0.932293 19.4864 2.53403 21.4851 4.47391L21.6552 1.94536C30.9061 2.48475 37.2955 6.82039 40.6766 16.5937C42.5708 33.5379 37.8774 35.23 36.8835 44.3353ZM7.07121 46.3463H36.9288C38.2956 46.3463 39.4128 47.332 39.4128 48.5258C39.4128 49.7195 38.2894 50.7052 36.9288 50.7052H7.07121C5.71064 50.7052 4.58723 49.725 4.58723 48.5258C4.58723 47.3265 5.7044 46.3463 7.07121 46.3463ZM2.56979 65.4905H41.4302C42.8438 65.4905 44 66.5049 44 67.7452C44 68.9856 42.8438 70 41.4302 70H2.56979C1.15617 70 0 68.9856 0 67.7452C0 66.5049 1.15617 65.4905 2.56979 65.4905ZM36.3359 52.7177C38.4173 55.9211 41.8218 59.1643 41.2695 63.4767H2.72426C2.17191 59.1643 6.03518 55.9211 8.11504 52.7177H36.3359Z" fill="#440D0F"/>
</g>
<defs>
<clipPath id="clip0_112_2">
<rect width="44" height="70" fill="white"/>
</clipPath>
</defs>
</svg>
