<svg width="13" height="15" viewBox="0 0 13 15" fill="none" xmlns="http://www.w3.org/2000/svg">
<g clip-path="url(#clip0_104_4)">
<path fill-rule="evenodd" clip-rule="evenodd" d="M4.44999 3.97581C4.17015 3.6041 4.00102 3.16358 3.96143 2.70326C3.92185 2.24294 4.01335 1.78089 4.22577 1.36851C4.43819 0.956142 4.76318 0.609626 5.16459 0.36753C5.56599 0.125434 6.02806 -0.00274658 6.49938 -0.00274658C6.97069 -0.00274658 7.43276 0.125434 7.83417 0.36753C8.23557 0.609626 8.56057 0.956142 8.77298 1.36851C8.9854 1.78089 9.07691 2.24294 9.03732 2.70326C8.99774 3.16358 8.82861 3.6041 8.54876 3.97581H4.44999ZM8.81654 4.44944C9.02833 4.47686 9.22283 4.57851 9.36408 4.73558C9.50534 4.89266 9.58381 5.09455 9.58498 5.30393C9.58396 5.52287 9.49856 5.73334 9.34589 5.89316C9.19322 6.05299 8.98456 6.15035 8.76174 6.16575H4.23453C4.01182 6.15034 3.8033 6.05293 3.65083 5.89308C3.49837 5.73322 3.41323 5.52276 3.41253 5.30393C3.4137 5.09455 3.49217 4.89266 3.63342 4.73558C3.77468 4.57851 3.96918 4.47686 4.18097 4.44944H8.81654ZM7.88743 6.6406C8.00077 8.41917 8.6347 9.82297 10.2226 10.5285V11.1816H2.77735V10.5285C4.27189 10.0647 4.97931 8.69749 5.11008 6.6406H7.88743ZM10.2613 11.6516C10.6951 11.7028 11.095 11.9076 11.3856 12.2275C11.6762 12.5474 11.8375 12.9603 11.8392 13.3886V13.4155H1.16076V13.3886C1.16252 12.9601 1.32403 12.547 1.61489 12.2271C1.90575 11.9072 2.30589 11.7025 2.73999 11.6516H2.7786H10.2226H10.2613ZM11.8193 13.8879C12.1052 13.9406 12.3691 14.0738 12.5789 14.2714C12.7886 14.4689 12.935 14.7221 13 15H0C0.0649582 14.7223 0.21113 14.4692 0.420616 14.2717C0.630101 14.0741 0.893807 13.9408 1.17944 13.8879H11.8193Z" fill="#9DFFF9"/>
</g>
<defs>
<clipPath id="clip0_104_4">
<rect width="13" height="15" fill="white"/>
</clipPath>
</defs>
</svg>
